<?xml version="1.0" standalone="no"?>
<!DOCTYPE svg PUBLIC "-//W3C//DTD SVG 20010904//EN"
 "http://www.w3.org/TR/2001/REC-SVG-20010904/DTD/svg10.dtd">
<svg version="1.0" xmlns="http://www.w3.org/2000/svg"
 width="260.000000pt" height="260.000000pt" viewBox="0 0 260.000000 260.000000"
 preserveAspectRatio="xMidYMid meet">
<metadata>
Created by potrace 1.11, written by Peter Selinger 2001-2013
</metadata>
<g transform="translate(0.000000,260.000000) scale(0.100000,-0.100000)"
fill="#000000" stroke="none">
<path d="M0 1580 l0 -1020 160 0 c153 0 160 -1 160 -20 0 -17 7 -20 40 -20
l40 0 0 40 c0 33 -3 40 -20 40 -17 0 -20 7 -20 45 0 48 -17 92 -44 114 -9 8
-16 29 -16 51 0 22 -9 51 -23 71 -13 19 -22 40 -20 46 2 6 -1 14 -6 18 -6 3
-11 16 -11 28 0 12 -9 33 -20 47 -11 14 -20 33 -20 42 0 9 -4 19 -9 22 -10 6
-21 52 -27 111 -2 21 -8 41 -13 45 -5 3 -11 23 -14 45 -3 22 -12 71 -20 108
-10 50 -12 91 -6 155 4 47 5 90 2 95 -3 5 -1 12 5 16 6 4 13 22 16 41 8 63 18
100 26 100 5 0 11 13 15 29 3 17 20 48 36 70 16 23 29 45 29 49 0 8 39 57 77
95 34 35 138 110 173 124 19 9 37 19 40 23 5 7 12 9 125 36 115 26 272 11 380
-36 143 -64 238 -67 380 -15 131 48 153 53 260 61 95 6 207 -10 267 -41 17 -8
36 -15 41 -15 45 0 277 -200 277 -239 0 -5 7 -11 15 -15 8 -3 15 -11 15 -18 0
-7 12 -35 25 -63 14 -27 25 -57 25 -65 0 -9 7 -25 15 -37 33 -47 45 -316 19
-418 -8 -33 -19 -80 -24 -104 -6 -24 -14 -49 -19 -55 -6 -7 -12 -26 -15 -42
-3 -17 -17 -61 -31 -98 -14 -36 -25 -76 -25 -87 0 -14 -5 -19 -14 -16 -10 4
-13 1 -9 -9 3 -9 -3 -21 -16 -30 -11 -8 -21 -22 -21 -31 0 -25 -23 -86 -39
-103 -22 -23 -41 -76 -41 -115 0 -28 4 -35 19 -35 13 0 21 8 23 22 3 22 3 22
22 2 20 -19 20 -19 -2 -22 -14 -2 -22 -10 -22 -23 0 -18 9 -19 220 -19 l220 0
0 1020 0 1020 -1300 0 -1300 0 0 -1020z"/>
<path d="M631 2100 c-197 -72 -317 -221 -351 -434 -32 -201 82 -488 290 -728
88 -101 256 -262 415 -395 165 -138 258 -213 265 -213 26 0 451 372 590 517
128 132 193 217 265 348 76 137 106 235 112 360 6 120 -6 188 -51 281 -133
275 -471 369 -724 203 -64 -42 -139 -125 -170 -186 -8 -18 -19 -33 -24 -33 -4
0 -15 15 -24 33 -55 105 -143 185 -264 237 -79 34 -250 39 -329 10z m192 -682
c27 -65 52 -118 56 -118 4 0 27 54 51 120 45 119 45 120 78 120 l32 0 0 -165
0 -165 -36 0 -37 0 8 93 c4 50 4 89 1 86 -4 -3 -22 -44 -40 -90 -28 -70 -38
-84 -58 -87 -23 -3 -29 6 -66 95 l-41 98 0 -97 -1 -98 -30 0 -30 0 0 166 0
165 32 -3 c30 -3 34 -8 81 -120z m416 8 c34 -18 51 -54 51 -107 0 -33 -7 -48
-34 -75 -28 -28 -42 -34 -76 -34 -34 0 -48 6 -76 34 -28 28 -34 41 -34 78 1
51 18 86 51 104 32 18 83 17 118 0z m137 -11 c5 -13 8 -13 27 0 28 19 91 19
107 0 11 -13 15 -13 33 0 28 20 91 19 111 -1 12 -12 16 -37 16 -110 l0 -94
-30 0 -29 0 6 63 c8 93 -20 131 -69 93 -14 -10 -18 -28 -18 -85 l0 -71 -30 0
-30 0 0 74 c0 88 -12 106 -60 86 -30 -12 -30 -14 -30 -86 l0 -74 -29 0 -30 0
-3 103 c-2 60 1 105 7 109 17 13 45 9 51 -7z"/>
<path d="M1140 1370 c-11 -11 -20 -31 -20 -45 0 -29 32 -65 58 -65 25 0 62 41
62 68 0 27 -33 62 -60 62 -11 0 -29 -9 -40 -20z"/>
<path d="M320 781 c0 -12 5 -21 10 -21 6 0 10 6 10 14 0 8 -4 18 -10 21 -5 3
-10 -3 -10 -14z"/>
</g>
</svg>
